<?xml version="1.0" encoding="utf-8"?>
<!-- Generator: Adobe Illustrator 23.0.4, SVG Export Plug-In . SVG Version: 6.00 Build 0) -->
<svg version="1.1" xmlns="http://www.w3.org/2000/svg" xmlns:xlink="http://www.w3.org/1999/xlink" x="0px" y="0px" viewBox="0 0 750 430" style="enable-background:new 0 0 750 430;" xml:space="preserve">
	<style type="text/css">
		.st0 {
			display: none;
		}
		.st1 {
			display: inline;
			fill: #F1E0DF;
		}
		.st2 {
			fill: #E3CDC9;
		}
		.st3 {
			opacity: 0.75;
			fill: none;
			stroke: #F3B5B5;
			stroke-width: 1.0888;
			stroke-miterlimit: 10;
		}
		.st4 {
			opacity: 0.75;
			fill: none;
			stroke: #F3B5B5;
			stroke-width: 1.103;
			stroke-linecap: round;
			stroke-linejoin: round;
			stroke-miterlimit: 10;
		}
		.st5 {
			fill: #FDB9B9;
		}
		.st6 {
			fill: #FFFFFF;
		}
		.st7 {
			fill: #8155FF;
		}
		.st8 {
			fill: #2B4183;
		}
		.st9 {
			fill: #FFCB2D;
		}
		.st10 {
			fill: none;
			stroke: #F0E0DF;
			stroke-width: 2.2132;
			stroke-miterlimit: 10;
		}
		.st11 {
			fill: #F88AA0;
		}
		.st12 {
			fill: none;
			stroke: #FFFFFF;
			stroke-width: 2.0174;
			stroke-miterlimit: 10;
		}
		.st13 {
			fill: #FFA80A;
		}
		.st14 {
			fill: #F67B91;
		}
		.st15 {
			fill: #F6F6F6;
		}
		.st16 {
			opacity: 0.71;
		}
		.st17 {
			clip-path: url("#SVGID_2_");
			fill: #FFFFFF;
		}
		.st18 {
			fill: #8054FF;
		}
		.st19 {
			fill: #7041FD;
		}
		.st20 {
			fill: #FA849B;
		}
		.st21 {
			fill: #181F42;
		}
		.st22 {
			fill: none;
			stroke: #FFFFFF;
			stroke-width: 1.5042;
			stroke-linecap: round;
			stroke-linejoin: round;
			stroke-miterlimit: 10;
		}
		.st23 {
			fill: #FFCD2E;
		}
		.st24 {
			fill: #F2BB19;
		}
		.st25 {
			fill: #E6728C;
		}
		.st26 {
			fill: #312725;
		}
		.st27 {
			fill: #F8879D;
		}
		.st28 {
			fill: none;
			stroke: #312725;
			stroke-width: 0.5974;
			stroke-linecap: round;
			stroke-linejoin: round;
			stroke-miterlimit: 10;
		}
		.st29 {
			fill: none;
			stroke: #FFFFFF;
			stroke-width: 1.5477;
			stroke-linecap: round;
			stroke-linejoin: round;
			stroke-miterlimit: 10;
		}
		.st30 {
			fill: #243B77;
		}
		.st31 {
			fill: #32292A;
		}
		.st32 {
			fill: none;
			stroke: #312725;
			stroke-width: 0.6026;
			stroke-linecap: round;
			stroke-linejoin: round;
			stroke-miterlimit: 10;
		}
		.st33 {
			fill: none;
			stroke: #281F27;
			stroke-width: 0.7565;
			stroke-miterlimit: 10;
		}
		.st34 {
			display: inline;
		}
		.st35 {
			fill: #1C1C1B;
		}
	</style>
	<g id="BACKGROUND" class="st0">
		<rect x="0" y="-20" class="st1" width="750" height="500"/>
	</g>
	<g id="OBJECTS">
		<path
			class="st2"
			d="M167.3,367.5c5.3,0.6,10.1,1.7,14.5,3.2c0,0,0,0,0,0c0.1,0,0.1,0,0.2,0.1c0.2,0.1,0.3,0.1,0.5,0.2
		c26.4,9.4,38.5,7.7,48.9,4.5c28-8.6,44.7-45.7,90.1-38.5c19.3,3,34.8,7.2,46.8,15.6c0,0,0,0,0,0c0.1,0.1,0.2,0.1,0.3,0.2
		c1.7,1.2,3.4,2.5,5,3.7c23.6,15.4,47.1-4.7,53.9-9.2c0.5-0.4,1-3.2,1.5-3.6c0.3-0.2,0.4-0.3,0.4-0.3l0,0
		c29.6-20.9,76.7-42,122-36.8c78,8.9,109.3,97.3,109.3,97.3H406.8h-20.7H224.5h-35.6H78.3C87.4,382.9,123.8,362.5,167.3,367.5z"/>
		<ellipse class="st3" cx="646.9" cy="215.8" rx="5.6" ry="5.7"/>
		<ellipse class="st3" cx="85.6" cy="251.5" rx="8" ry="8.1"/>
		<path class="st3" d="M389,83.1c0,1.7-1.4,3.1-3,3.1s-3-1.4-3-3.1c0-1.7,1.4-3.1,3-3.1S389,81.4,389,83.1z"/>
		<path class="st4" d="M127.6,66.6h130.1c0,0-0.6-5.2-15.1-9.3c-14.5-4.1-24.8,6.5-41.2,0c-16.3-6.5-25-15.7-46.1-10.6
		C134.3,51.9,127.6,66.6,127.6,66.6z"/>
		<path class="st4" d="M539.9,112.2h67.3c0,0-0.3-3.2-7.8-5.8c-7.5-2.6-12.8,4.1-21.3,0c-8.4-4.1-12.9-9.9-23.8-6.6
		C543.4,103,539.9,112.2,539.9,112.2z"/>
		<ellipse transform="matrix(0.1591 -0.9873 0.9873 0.1591 360.6263 514.829)" class="st5" cx="482.5" cy="45.7" rx="22" ry="22"/>
		<g>
			<g>
				<g>
					<rect x="241.4" y="173" class="st6" width="228.9" height="229.6"/>
					<path class="st7" d="M470.3,136.9V173H241.4v-36.1c0-7.2,5.8-13,13-13h202.9C464.5,123.9,470.3,129.7,470.3,136.9z"/>
					<g>
						<g>
							<circle class="st8" cx="434.8" cy="146.3" r="10.8"/>
							<path class="st9" d="M434.8,150.4L434.8,150.4c3.4,0,6.2-2.8,6.2-6.2v-27.9c0-3.4-2.8-6.2-6.2-6.2l0,0c-3.4,0-6.2,2.8-6.2,6.2
							v27.9C428.6,147.6,431.4,150.4,434.8,150.4z"/>
						</g>
						<g>
							<circle class="st8" cx="358.8" cy="146.3" r="10.8"/>
							<path class="st9" d="M358.8,150.4L358.8,150.4c3.4,0,6.2-2.8,6.2-6.2v-27.9c0-3.4-2.8-6.2-6.2-6.2l0,0c-3.4,0-6.2,2.8-6.2,6.2
							v27.9C352.6,147.6,355.4,150.4,358.8,150.4z"/>
						</g>
						<g>
							<circle class="st8" cx="282.8" cy="146.3" r="10.8"/>
							<path class="st9" d="M282.8,150.4L282.8,150.4c3.4,0,6.2-2.8,6.2-6.2v-27.9c0-3.4-2.8-6.2-6.2-6.2l0,0c-3.4,0-6.2,2.8-6.2,6.2
							v27.9C276.6,147.6,279.4,150.4,282.8,150.4z"/>
						</g>
					</g>
				</g>
				<g>
					<g>

						<rect x="392.9" y="209.9" transform="matrix(-1 -1.224647e-16 1.224647e-16 -1 829.3823 463.3297)" class="st10" width="43.5" height="43.5"/>

						<rect x="335" y="209.9" transform="matrix(-1 -1.224647e-16 1.224647e-16 -1 713.5703 463.3297)" class="st10" width="43.5" height="43.5"/>

						<rect x="277.1" y="209.9" transform="matrix(-1 -1.224647e-16 1.224647e-16 -1 597.7583 463.3297)" class="st10" width="43.5" height="43.5"/>
					</g>
					<g>

						<rect x="392.9" y="265.2" transform="matrix(-1 -1.224647e-16 1.224647e-16 -1 829.3823 573.8244)" class="st10" width="43.5" height="43.5"/>

						<rect x="335" y="265.2" transform="matrix(-1 -1.224647e-16 1.224647e-16 -1 713.5703 573.8244)" class="st10" width="43.5" height="43.5"/>

						<rect x="277.1" y="265.2" transform="matrix(-1 -1.224647e-16 1.224647e-16 -1 597.7583 573.8244)" class="st11" width="43.5" height="43.5"/>
						<g>
							<line class="st12" x1="292.8" y1="280.7" x2="304.9" y2="293.1"/>
							<line class="st12" x1="304.9" y1="280.7" x2="292.8" y2="293.1"/>
						</g>
					</g>
					<g>

						<rect x="392.9" y="320.4" transform="matrix(-1 -1.224647e-16 1.224647e-16 -1 829.3823 684.319)" class="st10" width="43.5" height="43.5"/>

						<rect x="335" y="320.4" transform="matrix(-1 -1.224647e-16 1.224647e-16 -1 713.5703 684.319)" class="st10" width="43.5" height="43.5"/>

						<rect x="277.1" y="320.4" transform="matrix(-1 -1.224647e-16 1.224647e-16 -1 597.7583 684.319)" class="st10" width="43.5" height="43.5"/>
					</g>
				</g>
			</g>
			<g>
				<g>
					<g>
						<rect x="445.2" y="251.3" class="st13" width="21.2" height="13.9"/>
						<path class="st9" d="M469.6,254.9h-27.7c-3.2,0-5.7-2.6-5.7-5.7l0,0c0-3.2,2.6-5.7,5.7-5.7h27.7c3.2,0,5.7,2.6,5.7,5.7l0,0
						C475.3,252.4,472.8,254.9,469.6,254.9z"/>
					</g>
					<g>

						<rect x="394.2" y="276.7" transform="matrix(0.7071 -0.7071 0.7071 0.7071 -81.9426 367.5034)" class="st13" width="16.9" height="11.9"/>
						<path class="st9" d="M408.2,272l-16.7,16.7c-1.7,1.7-4.4,1.7-6.1,0l0,0c-1.7-1.7-1.7-4.4,0-6.1l16.7-16.7
						c1.7-1.7,4.4-1.7,6.1,0l0,0C409.9,267.6,409.9,270.3,408.2,272z"/>
					</g>
				</g>
				<g>
					<g>
						<circle class="st14" cx="455.5" cy="330.8" r="71.6"/>
						<circle class="st11" cx="455.5" cy="330.8" r="67.7"/>
						<circle class="st15" cx="455.5" cy="330.8" r="60.1"/>
					</g>
					<g class="st16">
						<defs>
							<circle id="SVGID_1_" class="st16" cx="455.5" cy="330.8" r="60.1"/>
						</defs>
						<clipPath id="SVGID_2_">
							<use xlink:href="#SVGID_1_" style="overflow:visible;"/>
						</clipPath>
						<polygon class="st17" points="389.8,283.3 480.8,424.4 522,389.1 431.9,262.7 					"/>
						<polygon class="st17" points="438.3,249.3 529.4,390.4 534.7,372.7 444.6,246.4 					"/>
					</g>
					<g>
						<g>
							<g>
								<path class="st18" d="M455.8,284.3c-0.8,0-1.5-0.7-1.5-1.5v-3.5c0-0.8,0.7-1.5,1.5-1.5s1.5,0.7,1.5,1.5v3.5
								C457.3,283.6,456.6,284.3,455.8,284.3z"/>
								<path class="st18" d="M455.8,384.7c-0.8,0-1.5-0.7-1.5-1.5v-3.5c0-0.8,0.7-1.5,1.5-1.5s1.5,0.7,1.5,1.5v3.5
								C457.3,384,456.6,384.7,455.8,384.7z"/>
							</g>
							<g>
								<path class="st18" d="M421.6,298.5c-0.4,0-0.8-0.1-1.1-0.4l-2.5-2.5c-0.6-0.6-0.6-1.5,0-2.1c0.6-0.6,1.5-0.6,2.1,0l2.5,2.5
								c0.6,0.6,0.6,1.5,0,2.1C422.3,298.3,422,298.5,421.6,298.5z"/>
								<path class="st18" d="M492.6,369.5c-0.4,0-0.8-0.1-1.1-0.4l-2.5-2.5c-0.6-0.6-0.6-1.5,0-2.1c0.6-0.6,1.5-0.6,2.1,0l2.5,2.5
								c0.6,0.6,0.6,1.5,0,2.1C493.3,369.3,492.9,369.5,492.6,369.5z"/>
							</g>
							<g>
								<path class="st18" d="M419.1,369.5c-0.4,0-0.8-0.1-1.1-0.4c-0.6-0.6-0.6-1.5,0-2.1l2.5-2.5c0.6-0.6,1.5-0.6,2.1,0
								c0.6,0.6,0.6,1.5,0,2.1l-2.5,2.5C419.8,369.3,419.4,369.5,419.1,369.5z"/>
								<path class="st18" d="M490.1,298.5c-0.4,0-0.8-0.1-1.1-0.4c-0.6-0.6-0.6-1.5,0-2.1l2.5-2.5c0.6-0.6,1.5-0.6,2.1,0
								c0.6,0.6,0.6,1.5,0,2.1l-2.5,2.5C490.8,298.3,490.4,298.5,490.1,298.5z"/>
							</g>
							<g>
								<path class="st18" d="M407.4,332.7h-3.5c-0.8,0-1.5-0.7-1.5-1.5s0.7-1.5,1.5-1.5h3.5c0.8,0,1.5,0.7,1.5,1.5
								S408.2,332.7,407.4,332.7z"/>
								<path class="st18" d="M507.8,332.7h-3.5c-0.8,0-1.5-0.7-1.5-1.5s0.7-1.5,1.5-1.5h3.5c0.8,0,1.5,0.7,1.5,1.5
								S508.6,332.7,507.8,332.7z"/>
							</g>
						</g>
						<g>
							<path class="st18" d="M459.4,330.6h-7.2v-31.3c0-2,1.6-3.6,3.6-3.6l0,0c2,0,3.6,1.6,3.6,3.6V330.6z"/>
							<circle class="st8" cx="455.8" cy="330.6" r="8.3"/>
						</g>
					</g>
				</g>
			</g>
		</g>
		<g>
			<g>
				<g>
					<g>
						<path class="st19" d="M208.7,256.2l13.1,57.7c0.8,5.5-1.3,11-5.5,14.4l-39.1,30.5l0.7-28.1l19.5-15.9l-20.2-60.2L208.7,256.2z"/>
					</g>
					<g>
						<polygon class="st20" points="158.1,359.1 176.9,349.2 169.5,338.7 149.1,349.9 155.6,358.1 					"/>
						<g>
							<path class="st21" d="M153.6,345.4c0,0,3.2,11.6,12.3,11l3.5,27.8l-27-34.2L153.6,345.4z"/>

							<rect x="132.6" y="366.3" transform="matrix(0.6192 0.7852 -0.7852 0.6192 348.0258 19.0364)" class="st6" width="43.6" height="4.1"/>
							<path class="st22" d="M166.4,360.1c0,0-2.1-0.7-5.3-0.5"/>
							<path class="st22" d="M167.2,364.1c0,0-2.1-0.7-5.3-0.5"/>
							<path class="st22" d="M168,368.2c0,0-2.1-0.7-5.3-0.5"/>
						</g>
					</g>
				</g>
				<g>
					<g>
						<polygon class="st20" points="174.9,393.1 176.8,372.2 164,371.5 162.1,394.5 172.6,394.5 					"/>
						<g>
							<path class="st21" d="M160.4,388.1c0,0,11.1,4.7,16.3-2.9l24,14.4h-43.6L160.4,388.1z"/>
							<rect x="157.1" y="399.7" class="st6" width="43.6" height="4.1"/>
							<path class="st22" d="M179.8,387.2c0,0-1.8,1.2-3.7,3.8"/>
							<path class="st22" d="M183.5,389.1c0,0-1.8,1.2-3.7,3.8"/>
							<path class="st22" d="M187.2,391c0,0-1.8,1.2-3.7,3.8"/>
						</g>
					</g>
					<g>
						<g>
							<g>
								<polygon class="st7" points="165.5,254.8 159.6,376.5 181.9,376.5 198.2,255.2 							"/>
							</g>
						</g>
						<polygon class="st7" points="208.7,256.2 208.7,256.2 195.1,277.4 192.3,255.7 					"/>
					</g>
				</g>
			</g>
			<g>
				<g>
					<polygon class="st20" points="266.7,235.6 253.4,236.6 255.7,223.2 269.7,224.4 				"/>
					<g>
						<g>
							<g>
								<g>
									<path class="st20" d="M277.9,234.9c-3.9,3.4-9.8,2.9-13.2-1c-3.4-3.9-2.9-9.8,1-13.2c3.9-3.4,9.8-2.9,13.2,1
									C282.3,225.7,281.8,231.6,277.9,234.9z"/>
									<path class="st20" d="M272.3,218.5c0,0-1.7-3.9-5.7-1c-4,2.9-7.5,8.8-1.9,16.4L272.3,218.5z"/>
								</g>
							</g>
						</g>
						<path class="st20" d="M272.3,218.5l10.7-2.7c0.9-0.3,1.9,0.2,2.2,1.1l0,0c0.3,0.8-0.1,1.6-0.8,1.9l-10.9,4.9L272.3,218.5z"/>
					</g>
					<g>
						<path class="st23" d="M216.3,199.8l17.6,27.9c2.5,4.5,1.1,10.1-3.2,12.9l0,0c-4.5,2.9-10.5,1.7-13.5-2.8L197.9,211
						c-2.8-4.3-2.2-10,1.4-13.6v0C204.3,192.4,212.9,193.6,216.3,199.8z"/>
						<polygon class="st24" points="210.8,229 211.9,213.7 215.7,235.6 					"/>
					</g>
					<g>
						<path class="st23" d="M224.8,224.9l38.8-4.6l-0.1,17.7l-36.1,4.6c-5.7,1.1-10.9-3.4-10.7-9.2l0,0
						C216.9,229,220.3,225.3,224.8,224.9z"/>
					</g>
				</g>
				<g>
					<g>
						<g>
							<path class="st20" d="M157.7,277.4c0,0,4.3,0.3,3.6-4.6c-0.7-4.9-4.4-10.9-13.8-9.6L157.7,277.4z"/>

							<rect x="126.4" y="273.5" transform="matrix(-1 -1.224647e-16 1.224647e-16 -1 296.3632 590.5488)" class="st23" width="43.5" height="43.5"/>

							<rect x="128.4" y="273.5" transform="matrix(-1 -1.224647e-16 1.224647e-16 -1 300.387 590.5488)" class="st23" width="43.5" height="43.5"/>
							<path class="st20" d="M140.3,274.6c-1.1-5.1,2.1-10.2,7.2-11.4c5.1-1.1,10.2,2.1,11.4,7.2c1.1,5.1-2.1,10.2-7.2,11.4
							C146.5,282.9,141.4,279.7,140.3,274.6z"/>
						</g>
						<path class="st23" d="M158.8,227.3l-0.4,39l-17.1-0.8l-0.5-37.9c-0.4-5.8,4.7-10.4,10.5-9.5l0,0
						C155.8,218.9,159,222.8,158.8,227.3z"/>
					</g>
					<g>
						<path class="st23" d="M180.8,211l-23.6,23c-3.9,3.4-9.6,3.2-13.3-0.4l0,0c-3.8-3.8-3.8-9.9-0.1-13.7l22.1-24.6
						c3.6-3.6,9.3-4.3,13.6-1.5l0,0C185.6,197.7,186.2,206.3,180.8,211z"/>
					</g>
				</g>
				<g>
					<g>
						<path class="st23" d="M207.1,194.3l-33.5-2.2c-3-0.2-8.4,5.3-8.1,8.3l0,54.4l43.2,1.4l4.4-55.2
						C213.3,197.5,210.6,194.5,207.1,194.3z"/>
					</g>
					<polygon class="st24" points="165.5,225.9 175.2,216.4 165.5,242.2 				"/>
				</g>
			</g>
			<g>
				<path class="st25" d="M201.7,171.7c-0.2,2.5,1.6,4.7,4,5c2.4,0.2,4.6-1.6,4.8-4.2c0.2-2.5-1.6-4.7-4-5
				C204,167.3,201.9,169.2,201.7,171.7z"/>
				<path class="st20" d="M199.1,182.5l-0.2,11c-0.1,3.8-2.4,5.9-6.1,5.8l0,0c-3.1-0.1-6.5-1.7-6.3-5.1l1.1-17.2L199.1,182.5z"/>
				<path class="st26" d="M199,189.8c0,0-8.9,0.6-11.5-9.5c-0.8-3.2,11.7,1.1,11.7,1.1L199,189.8z"/>
				<path class="st27" d="M195.7,185.6L195.7,185.6c6.3,0.1,11.5-4.9,11.8-10.1l0.5-11c0.4-6.6-4.4-12.3-10.8-12.9l0,0
				c-6.5-0.6-13.4,4.3-14,11.1l-0.3,8.6C182.6,179,188.3,185,195.7,185.6z"/>
				<g>
					<polyline class="st28" points="201,170.7 201.3,174.3 199.8,174.3 				"/>
					<path class="st26" d="M194.2,163.4c0,0,2.6-0.2,2.6,0.9c0,0,0,0.7-2.3,0.8c-2.2,0.1-2.8-0.1-3-0.8
					C191.4,163.6,193,163.3,194.2,163.4z"/>
					<path class="st26" d="M205,165.9c0,0-2.1-0.3-2.3,0.7c0,0-0.1,0.7,1.7,0.9c1.8,0.2,2.5,0,2.6-0.6
					C207.2,166.3,206,165.9,205,165.9z"/>
					<path class="st26" d="M203.3,170c0,0.6,0.4,1.1,1,1.2c0.6,0,1.1-0.4,1.1-1.1c0-0.6-0.4-1.1-1-1.2
					C203.9,168.9,203.4,169.4,203.3,170z"/>
					<path class="st26" d="M193.9,169.5c0,0.6,0.4,1.1,1,1.2c0.6,0,1.1-0.4,1.1-1.1c0-0.6-0.4-1.1-1-1.2
					C194.5,168.4,193.9,168.9,193.9,169.5z"/>
					<path class="st28" d="M196.5,175.9c0.1,0.2,1.5,1.7,3.6,1.2"/>
				</g>
				<path class="st26" d="M205.5,146.2c-2.4-1-8.5-2.2-9.9,3.2c-6.1-0.5-15.8-0.4-16.7,4.9c-1.4,7.8,4.1,15.4,4.1,15.4l1.5,0.8
				c0,0,3.9-2,2.9-11.3c0,0,14.1,3.4,20.7-0.2C214.7,155.5,212.7,149.3,205.5,146.2z"/>
				<g>
					<path class="st27" d="M177.2,170.9c-0.2,2.5,1.6,4.7,4,4.9c2.4,0.2,4.6-1.6,4.8-4.1c0.2-2.5-1.6-4.7-4-4.9
					C179.5,166.6,177.4,168.4,177.2,170.9z"/>
					<path class="st28" d="M183,172.5c0,0,0.3-3.3-2.8-3"/>
				</g>
				<path class="st20" d="M182.2,192.6l20.1,1.3c0,0,0.6,6.9-8.3,6.4C184,199.8,182.2,192.6,182.2,192.6z"/>
			</g>
		</g>
		<g>
			<g>
				<g>
					<g>
						<polygon class="st20" points="602.1,360 582.3,350.8 589.4,339.7 611,350.1 604.7,358.9 					"/>
						<g>
							<path class="st21" d="M606.1,345.8c0,0-2.7,12.1-12.2,11.9l-2.3,28.7l26.1-36.5L606.1,345.8z"/>

							<rect x="583.9" y="367.3" transform="matrix(-0.5827 0.8127 -0.8127 -0.5827 1259.8833 91.7705)" class="st6" width="44.9" height="4.2"/>
							<path class="st29" d="M593.6,361.4c0,0,2.1-0.8,5.4-0.8"/>
							<path class="st29" d="M593,365.6c0,0,2.1-0.8,5.4-0.8"/>
							<path class="st29" d="M592.4,369.9c0,0,2.1-0.8,5.4-0.8"/>
						</g>
					</g>
					<path class="st30" d="M556.2,239.5c0,0-12.9,48.3-14.8,57.8c-1.9,9.5-5.7,28.6,2.3,35.4c8,6.9,38.7,23.3,38.7,23.3l11.3-20.3
					l-18.3-11L556.2,239.5z"/>
				</g>
				<g>
					<g>
						<polygon class="st20" points="573.6,393 569.6,371.5 582.8,370.9 586.8,394.4 576,394.4 					"/>
						<g>
							<path class="st21" d="M587.5,387.9c0,0-11.4,4.9-16.7-3L546,399.8h44.9L587.5,387.9z"/>

							<rect x="546" y="399.8" transform="matrix(-1 -1.224647e-16 1.224647e-16 -1 1136.9554 803.8566)" class="st6" width="44.9" height="4.2"/>
							<path class="st29" d="M567.5,386.9c0,0,1.9,1.3,3.8,3.9"/>
							<path class="st29" d="M563.7,388.9c0,0,1.9,1.3,3.8,3.9"/>
							<path class="st29" d="M559.9,390.8c0,0,1.9,1.3,3.8,3.9"/>
						</g>
					</g>
					<path class="st8" d="M556.2,239.5l-1.3,72.8c0,2.6,0.2,5.2,0.6,7.8l10.8,56.2H589l-6.3-63.3c0.3-11.6,4.1-24.7,5.6-38.9
					c0,0,4.4-26.4-7.7-34.4L556.2,239.5z"/>
				</g>
			</g>
			<g>
				<g>
					<g>
						<g>
							<path class="st20" d="M541.7,229.5l-37-13.5l-4.3,7.2l36.1,19.1c6,2.3,12.2-2.9,11.1-9.2v0C547,230.2,544.5,230.5,541.7,229.5
							z"/>
						</g>
						<g>
							<g>
								<path
									class="st20"
									d="M500.1,210.5c-0.7-0.7-1.7-1-2.6-0.8c-1.2,0.3-1.7,1.5-1,2.6l0.5,0.9c-1.2,0.5-3.6,0.6-8.1-4
								c-0.8-0.8-2-0.9-2.8-0.4c-0.6,0.4-0.7,1.2-0.4,1.8c0,0,0,0.1,0.1,0.1c-0.6-0.2-1.3-0.2-1.8,0.2c-0.6,0.4-0.7,1.2-0.4,1.8
								c0,0.1,0.1,0.2,0.2,0.3c-0.3,0-0.6,0.1-0.8,0.3c-0.6,0.4-0.7,1.2-0.4,1.8c0.1,0.2,0.2,0.4,0.4,0.5c0.1,0.1,0.1,0.1,0.2,0.2
								c0,0-0.1,0-0.1,0c-0.6,0.4-0.7,1.2-0.4,1.8c0.1,0.2,0.2,0.4,0.4,0.5c1.2,1.3,2.5,2.3,3.7,3.1l0,0c0,0,0,0,0.1,0
								c0.6,0.4,1.1,0.7,1.7,1c2.6,1.5,8.1,0.2,12.9,1l3.7-7L500.1,210.5z"/>
							</g>

							<rect x="453.2" y="184" transform="matrix(-0.401 0.9161 -0.9161 -0.401 855.1766 -146.6147)" class="st23" width="44.6" height="44.6"/>
							<path class="st20" d="M500.7,211.2l-3.6-4.2c-0.6-0.7-1.6-0.7-2.2,0l0,0c-0.4,0.5-0.5,1.1-0.2,1.6l1.8,3.6
							c0,0-1.6,4.9,2.2,9.1L500.7,211.2z"/>
						</g>
					</g>
					<g>
						<path class="st20" d="M558.1,230.3L544.6,241c-2.7,2.2-6.5,2.4-9.5,0.6l0,0c-4.2-2.6-6.7-4.9-3.7-8.8l14.8-15L558.1,230.3z"/>
						<path class="st19" d="M568.5,217.4c0,0-1.8,8.8-12.4,16.9l-16.4-15.5L553,204L568.5,217.4z"/>
					</g>
				</g>
				<g>
					<g>
						<g>
							<path class="st20" d="M594.1,229.1l28.5,35.9l6.4-4.3c0,0-16.3-30.4-23.9-40c-4-5-12-3.7-14.2,2.3l0,0
							C589.9,225.8,592.2,226.8,594.1,229.1z"/>
						</g>
						<g>
							<path
								class="st20"
								d="M624,272.3c0.2,0.9,1,1.7,1.8,1.9c1.2,0.3,2.1-0.5,2.1-1.7l0-1c1.2,0.2,3.4,1.2,5.1,7.2
							c0.3,1,1.3,1.7,2.2,1.6c0.7-0.1,1.2-0.6,1.2-1.4c0,0,0-0.1,0-0.1c0.4,0.5,1,0.7,1.6,0.7c0.7-0.1,1.2-0.6,1.2-1.4
							c0-0.1,0-0.2,0-0.3c0.3,0.1,0.6,0.2,0.9,0.1c0.7-0.1,1.2-0.6,1.2-1.4c0-0.2,0-0.4-0.1-0.6c0-0.1,0-0.2-0.1-0.2
							c0,0,0.1,0,0.1,0c0.7-0.1,1.2-0.6,1.2-1.4c0-0.2,0-0.4-0.1-0.6c-0.5-1.6-1-3.1-1.7-4.4l0,0c0,0,0,0,0-0.1
							c-0.3-0.6-0.6-1.2-1-1.7c-1.5-2.5-6.8-4-10.6-6.9l-6.4,4.3L624,272.3z"/>
						</g>
					</g>
					<g>
						<path class="st20" d="M589.8,206.9l13,11.4c2.6,2.3,3.5,6,2.2,9.2l0,0c-1.8,4.6-3.7,7.5-8,5.2l-17.4-11.9L589.8,206.9z"/>
						<path class="st7" d="M573.1,199c0,0,11.1,0.2,20.9,9.2l-8.8,16.4l-17.4-6L573.1,199z"/>
					</g>
				</g>
				<g>
					<path class="st7" d="M559.1,200c0,0-10.8,3-10.8,17.4c0,7.9,7.9,22.1,7.9,22.1l24.3,0.1c0,0,3.6-9.9,5.7-18.9
					c2.1-9-4.7-17.5-13-21.8L559.1,200z"/>
					<polygon class="st19" points="585.2,224.6 575.7,217.8 583,232 				"/>
				</g>
			</g>
			<g>
				<g>
					<g>
						<g>
							<path class="st27" d="M565.2,204.6L565.2,204.6c3.4-0.5,4.6-2.8,4.1-6.1l-3.8-19.3l-10.2,1.6l2.8,18.6
							C558.7,202.8,561.9,205.1,565.2,204.6z"/>
						</g>
						<path class="st31" d="M563.2,183c0,0,3.3,10.3-5.5,13.8l-0.8-6.2l9-6.8"/>
					</g>
					<g>
						<path class="st27" d="M555.7,191.9L555.7,191.9c6.4-0.6,11.1-5.7,10.5-11.4l-1.8-18.6l-10.7,0c-3.9,0.4-9.4,5.6-9,9.1l1.9,11.5
						C546.9,186.8,550.3,192.4,555.7,191.9z"/>
						<path class="st27" d="M547,176l-2.4,6.2c-0.4,0.6,0.1,1.4,0.9,1.3l4.2-0.4L547,176z"/>
					</g>
				</g>
				<g>
					<path class="st26" d="M549.2,173.1c0,0-2.3,0.1-2.2,1c0,0,0.1,0.6,2.1,0.5c2-0.1,2.5-0.3,2.6-0.9
					C551.8,173.1,550.2,173,549.2,173.1z"/>
					<path class="st26" d="M549.3,177.6c0.1,0.5-0.3,1-0.8,1.1c-0.5,0.1-1-0.3-1.1-0.8c-0.1-0.5,0.3-1,0.8-1.1
					C548.7,176.7,549.2,177,549.3,177.6z"/>
					<path class="st28" d="M548.6,184.8c0,0,1.6,0,2.3-1.9"/>
				</g>
				<path class="st27" d="M566.3,197.9l6.9,1.1c0,0-7.2,11.7-14.4,8.9c-8.2-3.2,2.7-9.4,2.7-9.4L566.3,197.9z"/>
				<path class="st31" d="M563.4,176.8c-5.4-1.4-6.4-6.4-6.4-6.4l-14.3,2.8c0,0-2.2-14.2,14.9-16.9c8.6-1.3,14,2.8,16.9,6.9
				c2.7,3.9,3,9.1,1.1,13.5c-1.4,3.1-4.9,7.5-8.7,9.5l-1.3-7.1C565.5,179.1,564.3,177.1,563.4,176.8z"/>
				<g>
					<path class="st27" d="M570.2,175.8c0,2.5-2,4.6-4.5,4.6c-2.5,0-4.4-2.1-4.4-4.6c0-2.5,2-4.6,4.5-4.6
					C568.2,171.2,570.2,173.3,570.2,175.8z"/>
					<path class="st32" d="M564.2,176.9c0,0,0-3.3,3.1-2.8"/>
				</g>
				<path class="st31" d="M592.9,157.6c1,6-3,11.8-9.1,12.8c-6,1-11.8-3-12.8-9.1c-1-6,3-11.8,9.1-12.8
				C586.1,147.5,591.9,151.6,592.9,157.6z"/>
			</g>
		</g>
		<line class="st33" x1="690.1" y1="404.4" x2="53.9" y2="404.4"/>
	</g>
	<g id="DESIGNED_BY_FREEPIK" class="st0">
		<g class="st34">
			<g id="XMLID_29_">
				<g id="XMLID_48_">
					<path
						id="XMLID_56_"
						class="st35"
						d="M385.1,445.5c-0.4,0.4-0.8,0.9-1.1,1.5l-0.5-0.2c-0.1-0.3-0.3-0.5-0.7-0.5
					c-0.3,0-0.6,0.3-0.5,0.7c0,0.3,0.3,0.6,0.7,0.5c0.1,0,0.1,0,0.2-0.1l0.5,0.2c-0.3,0.6-0.4,1.1-0.5,1.7l0.7,0.1
					c0.2-1.3,0.8-2.5,1.8-3.5L385.1,445.5z"/>
					<path
						id="XMLID_55_"
						class="st35"
						d="M390.6,443.2c-0.2,0-0.3,0-0.5,0l-0.1-0.6c0.2-0.1,0.3-0.4,0.3-0.6c0-0.4-0.4-0.7-0.8-0.6
					s-0.7,0.4-0.6,0.8c0,0.3,0.2,0.5,0.4,0.6l0.1,0.6c-0.7,0.1-1.4,0.3-2.1,0.6l0.3,0.7c0.9-0.4,1.9-0.7,3-0.7c0.5,0,1,0.1,1.5,0.2
					l0.2-0.7C391.7,443.2,391.1,443.2,390.6,443.2z"/>
					<path
						id="XMLID_54_"
						class="st35"
						d="M397.2,445.7c0.3,0,0.6-0.3,0.5-0.7c0-0.3-0.3-0.6-0.7-0.5c-0.3,0-0.5,0.3-0.5,0.6
					l-0.4,0.4c-0.4-0.4-0.9-0.8-1.4-1.1l-0.4,0.6c1.1,0.7,2,1.7,2.6,2.9l0.7-0.3c-0.3-0.6-0.6-1.1-0.9-1.5l0.4-0.4
					C397,445.7,397.1,445.7,397.2,445.7z"/>
					<path id="XMLID_53_" class="st35" d="M390,453.4c-0.4,0-0.8,0-1.2,0c-0.9,0-1.7-0.1-2.5-0.2c-0.4-0.1-0.8-0.2-1.3-0.3
					c1,1.9,3.1,3.1,5.4,3.1c2.9,0,5.3-1.9,5.9-4.5c-0.7,0.4-1.5,0.8-2.5,1.1C392.8,453.1,391.4,453.3,390,453.4z"/>
					<path
						id="XMLID_49_"
						class="st35"
						d="M390.6,444.7c-3.4,0-6.1,2.7-6.1,5.9c0,0.4,0,0.8,0.1,1.3c0.7,0.5,2.7,0.9,5.3,0.7
					c2.9-0.2,5.3-1,6.7-2.2c0-0.2,0-0.4,0-0.6C396.2,446.9,393.6,444.7,390.6,444.7z M388.4,451.2c-1,0-1.8-0.8-1.8-1.8
					c0-1,0.8-1.8,1.8-1.8c1,0,1.8,0.8,1.8,1.8C390.3,450.4,389.4,451.2,388.4,451.2z M393.1,450.3c-0.8,0-1.4-0.6-1.4-1.4
					s0.6-1.4,1.4-1.4c0.8,0,1.4,0.6,1.4,1.4S393.9,450.3,393.1,450.3z"/>
				</g>
				<path id="XMLID_46_" class="st35" d="M406.6,446.6c-0.3-0.1-0.8-0.3-1.4-0.2c-0.6,0.1-0.8,0.3-0.8,1v0.9h2.2v1.7h-2.2v5.5h-1.9
				v-5.5h-1.3v-1.7h1.3v-0.9c0-1.7,0.9-2.8,2.6-2.8c0.6,0,1.2,0.1,1.6,0.3L406.6,446.6z"/>
				<path id="XMLID_44_" class="st35" d="M411.3,449.9c-0.2,0-0.4,0-0.5,0c-0.9,0-1.5,0.5-1.5,1.6v3.9h-1.9v-7.2h1.9v0.8
				c0.5-0.7,1.1-1,2-1c0.4,0,0.8,0.1,1.1,0.3L411.3,449.9z"/>
				<path
					id="XMLID_41_"
					class="st35"
					d="M418.9,451.8c0,0.2,0,0.5,0,0.7h-5.1c0.2,1,0.9,1.5,1.8,1.5c0.6,0,1.3-0.3,1.8-0.7l1.1,1.2
				c-0.8,0.7-1.9,1.1-3.1,1.1c-2.2,0-3.7-1.5-3.7-3.8c0-2.3,1.5-3.8,3.6-3.8C417.5,448,418.9,449.5,418.9,451.8z M413.8,451.1h3.2
				c-0.2-0.9-0.7-1.4-1.6-1.4C414.5,449.7,414,450.2,413.8,451.1z"/>
				<path
					id="XMLID_38_"
					class="st35"
					d="M426.6,451.8c0,0.2,0,0.5,0,0.7h-5.1c0.2,1,0.9,1.5,1.8,1.5c0.6,0,1.3-0.3,1.8-0.7l1.1,1.2
				c-0.8,0.7-1.9,1.1-3.1,1.1c-2.2,0-3.7-1.5-3.7-3.8c0-2.3,1.5-3.8,3.6-3.8C425.2,448,426.6,449.5,426.6,451.8z M421.5,451.1h3.2
				c-0.2-0.9-0.7-1.4-1.6-1.4C422.2,449.7,421.7,450.2,421.5,451.1z"/>
				<path
					id="XMLID_35_"
					class="st35"
					d="M434.9,451.8c0,2.2-1.5,3.8-3.5,3.8c-1,0-1.6-0.4-2.1-0.9v3.7h-1.9v-10.1h1.9v0.8
				c0.5-0.6,1.2-1,2.1-1C433.4,448,434.9,449.6,434.9,451.8z M429.3,451.8c0,1.1,0.7,2,1.8,2c1.1,0,1.9-0.9,1.9-2c0-1.1-0.7-2-1.9-2
				C430,449.8,429.3,450.6,429.3,451.8z"/>
				<path id="XMLID_32_" class="st35" d="M438,445.8c0,0.7-0.5,1.2-1.2,1.2c-0.7,0-1.2-0.5-1.2-1.2c0-0.7,0.5-1.2,1.2-1.2
				C437.5,444.6,438,445.1,438,445.8z M437.8,455.4h-1.9v-7.2h1.9V455.4z"/>
				<path id="XMLID_30_" class="st35" d="M441,450.7l2.7-2.6h2.4l-3.5,3.4l3.5,3.8h-2.4l-2.7-2.9v2.9h-1.9v-10.7h1.9V450.7z"/>
			</g>
			<g>
				<path
					class="st35"
					d="M309.4,455.3v-1.1c-0.5,0.7-1.4,1.2-2.4,1.2c-1.8,0-3.1-1.4-3.1-3.7c0-2.3,1.3-3.7,3.1-3.7
				c1,0,1.8,0.5,2.4,1.2v-3.8h1.1v9.8H309.4z M309.4,453.4v-3.2c-0.4-0.6-1.2-1.1-2.1-1.1c-1.4,0-2.3,1.2-2.3,2.7
				c0,1.6,0.8,2.7,2.3,2.7C308.1,454.5,309,454,309.4,453.4z"/>
				<path
					class="st35"
					d="M311.9,451.7c0-2.1,1.5-3.7,3.5-3.7c2.1,0,3.4,1.7,3.4,3.8v0.3h-5.7c0.1,1.3,1,2.4,2.5,2.4
				c0.8,0,1.6-0.3,2.2-0.9l0.5,0.7c-0.7,0.7-1.7,1.1-2.8,1.1C313.4,455.5,311.9,454,311.9,451.7z M315.4,449c-1.5,0-2.3,1.3-2.3,2.4
				h4.6C317.7,450.3,317,449,315.4,449z"/>
				<path
					class="st35"
					d="M319.6,454.4l0.6-0.8c0.5,0.5,1.4,1,2.3,1c1.1,0,1.7-0.5,1.7-1.2c0-1.7-4.4-0.7-4.4-3.3c0-1.1,1-2,2.6-2
				c1.2,0,2.1,0.5,2.6,1l-0.5,0.8c-0.4-0.5-1.2-0.9-2.1-0.9c-1,0-1.6,0.5-1.6,1.1c0,1.6,4.4,0.5,4.4,3.3c0,1.2-1,2.1-2.8,2.1
				C321.3,455.5,320.3,455.1,319.6,454.4z"/>
				<path class="st35" d="M326.5,446.5c0-0.4,0.3-0.7,0.7-0.7c0.4,0,0.7,0.3,0.7,0.7c0,0.4-0.3,0.7-0.7,0.7
				C326.8,447.2,326.5,446.9,326.5,446.5z M326.6,455.3v-7.1h1.1v7.1H326.6z"/>
				<path
					class="st35"
					d="M329.6,457.1l0.6-0.8c0.6,0.7,1.3,1,2.3,1c1.2,0,2.3-0.6,2.3-2.1v-1c-0.5,0.7-1.4,1.3-2.4,1.3
				c-1.8,0-3.1-1.4-3.1-3.7c0-2.3,1.3-3.7,3.1-3.7c1,0,1.8,0.5,2.4,1.2v-1.1h1.1v6.9c0,2.3-1.6,3.1-3.4,3.1
				C331.2,458.2,330.4,457.9,329.6,457.1z M334.7,453.3v-3.1c-0.4-0.6-1.2-1.1-2.1-1.1c-1.4,0-2.3,1.1-2.3,2.7
				c0,1.6,0.8,2.7,2.3,2.7C333.5,454.4,334.3,453.9,334.7,453.3z"/>
				<path class="st35" d="M342.4,455.3v-4.6c0-1.2-0.6-1.6-1.6-1.6c-0.9,0-1.7,0.5-2.1,1.1v5.2h-1.1v-7.1h1.1v1
				c0.5-0.6,1.5-1.2,2.5-1.2c1.5,0,2.3,0.7,2.3,2.3v5H342.4z"/>
				<path
					class="st35"
					d="M344.9,451.7c0-2.1,1.5-3.7,3.5-3.7c2.1,0,3.4,1.7,3.4,3.8v0.3h-5.7c0.1,1.3,1,2.4,2.5,2.4
				c0.8,0,1.6-0.3,2.2-0.9l0.5,0.7c-0.7,0.7-1.7,1.1-2.8,1.1C346.4,455.5,344.9,454,344.9,451.7z M348.4,449c-1.5,0-2.3,1.3-2.3,2.4
				h4.6C350.7,450.3,350,449,348.4,449z"/>
				<path
					class="st35"
					d="M358.3,455.3v-1.1c-0.5,0.7-1.4,1.2-2.4,1.2c-1.8,0-3.1-1.4-3.1-3.7c0-2.3,1.3-3.7,3.1-3.7
				c1,0,1.8,0.5,2.4,1.2v-3.8h1.1v9.8H358.3z M358.3,453.4v-3.2c-0.4-0.6-1.2-1.1-2.1-1.1c-1.4,0-2.3,1.2-2.3,2.7
				c0,1.6,0.8,2.7,2.3,2.7C357.1,454.5,357.9,454,358.3,453.4z"/>
				<path
					class="st35"
					d="M364.7,455.3v-9.8h1.1v3.8c0.6-0.8,1.4-1.2,2.4-1.2c1.8,0,3.1,1.5,3.1,3.7c0,2.3-1.3,3.7-3.1,3.7
				c-1,0-1.9-0.5-2.4-1.2v1.1H364.7z M367.9,454.5c1.4,0,2.3-1.2,2.3-2.7c0-1.6-0.8-2.7-2.3-2.7c-0.9,0-1.7,0.5-2.1,1.1v3.2
				C366.2,454,367,454.5,367.9,454.5z"/>
				<path class="st35" d="M372.5,457.1c0.2,0.1,0.4,0.1,0.6,0.1c0.5,0,0.8-0.2,1.1-0.7l0.5-1.1l-3-7.1h1.2l2.4,5.8l2.3-5.8h1.2
				l-3.5,8.5c-0.4,1-1.1,1.4-2.1,1.4c-0.2,0-0.6,0-0.8-0.1L372.5,457.1z"/>
			</g>
		</g>
	</g>
</svg>
